<?xml version="1.0" standalone="no"?><!DOCTYPE svg PUBLIC "-//W3C//DTD SVG 1.1//EN" "http://www.w3.org/Graphics/SVG/1.1/DTD/svg11.dtd"><svg t="1577157825637" class="icon" viewBox="0 0 1024 1024" version="1.1" xmlns="http://www.w3.org/2000/svg" p-id="3838" xmlns:xlink="http://www.w3.org/1999/xlink" width="200" height="200"><defs><style type="text/css"></style></defs><path d="M512 0c282.7648 0 512 229.2352 512 512S794.7648 1024 512 1024 0 794.7648 0 512 229.2352 0 512 0z" fill="#10A7F5" p-id="3839"></path><path d="M678.4 716.8H294.4c-27.5968 0-38.4-31.936-38.4-58.7648V330.1504c0-26.8288 22.3744-48.5632 49.9712-48.5632h412.0832c27.5968 0 49.9456 21.7344 49.9456 48.5632v425.0368L678.4 716.8zM424.6016 451.5968c-24.1536 0-43.712 19.0208-43.712 42.5088 0 23.4624 19.5584 42.4832 43.712 42.4832 24.128 0 43.6864-19.0208 43.6864-42.4832 0-23.488-19.5584-42.5088-43.6864-42.5088z m174.8224 0c-24.1536 0-43.712 19.0208-43.712 42.5088 0 23.4624 19.5584 42.4832 43.712 42.4832 24.128 0 43.6864-19.0208 43.6864-42.4832 0-23.488-19.5584-42.5088-43.6864-42.5088z" fill="#FFFFFF" p-id="3840"></path></svg>